<?xml version="1.0" encoding="utf-8"?>
<!-- Generator: Adobe Illustrator 15.0.2, SVG Export Plug-In . SVG Version: 6.00 Build 0)  -->
<!DOCTYPE svg PUBLIC "-//W3C//DTD SVG 1.1//EN" "http://www.w3.org/Graphics/SVG/1.1/DTD/svg11.dtd">
<svg version="1.1" xmlns="http://www.w3.org/2000/svg" xmlns:xlink="http://www.w3.org/1999/xlink" x="0px" y="0px"
	 width="773.334px" height="250.667px" viewBox="0 0 773.334 250.667" enable-background="new 0 0 773.334 250.667"
	 xml:space="preserve">
<g id="Layer_2">
	<rect x="-1733.167" y="-548.167" fill="#D92C27" width="1400" height="1450"/>
	<rect x="1606.833" y="-23.167" fill="#D92C27" width="400" height="400"/>
	<path fill="#FFFFFF" d="M1867.327,213.38c-0.185-1.043-0.336-2.141-0.481-3.326h0.053l40.808-41.225l31.523-31.938
		c0,0,11.849-12.634,10.878-29.562c-4.926-30.679-8.934-54.974-8.934-54.974l-79.171,32.729l-0.363,0.181l1.476,5.908
		c0,0,20.154-7.834,26.869-0.29c0.847,0.924,1.642,1.547,2.823,4.991c1.872,6.136,4.646,18.663,9.652,46.239
		c1.012,6.049-1.32,10.004-2.526,11.674c-0.176,0.23-0.316,0.356-0.316,0.356l-35.587,36.44c-1.396-9.234-0.983-6.436-0.022,0.025
		l-0.045,0.05c-7.995-52.655-21.886-138.084-21.886-138.084l-79.613,32.865l1.485,5.998c0,0,20.158-7.886,26.88-0.355
		c0.85,0.989,1.656,1.602,2.836,5.067c1.843,6.046,4.627,18.577,9.66,46.139c1.254,8.128-3.237,12.561-3.237,12.561l-35.209,35.995
		c-7.974-52.656-21.814-137.681-21.814-137.681l-79.562,32.875l1.466,5.964c0,0,20.133-7.853,26.872-0.263
		c3.185,3.532,5.271,2.016,31.575,161.301c0,0,4.015,21.646-18.282,40.834l6.072,7.435c0,0,63.54-42.083,57.137-87.259
		c-0.136-1.208-0.34-2.423-0.547-3.691l40.611-40.941c3.706,21.151,8.284,48.187,13.994,83.024c0,0,3.987,21.596-18.306,40.818
		l6.144,7.398C1810.238,300.66,1873.731,258.614,1867.327,213.38"/>
</g>
<g id="Layer_1">
	<g>
		<path fill="#FFFFFF" d="M-1215.499,162.197c-0.185-1.043-0.336-2.141-0.482-3.326h0.053l40.808-41.225l31.524-31.938
			c0,0,11.849-12.634,10.877-29.562c-4.925-30.679-8.933-54.974-8.933-54.974l-79.171,32.729l-0.363,0.181l1.476,5.908
			c0,0,20.154-7.834,26.869-0.29c0.847,0.924,1.642,1.547,2.823,4.991c1.872,6.136,4.646,18.663,9.652,46.239
			c1.012,6.049-1.32,10.004-2.526,11.674c-0.176,0.23-0.317,0.356-0.317,0.356l-35.587,36.44c-1.395-9.234-0.983-6.436-0.022,0.025
			l-0.045,0.05c-7.995-52.655-21.886-138.084-21.886-138.084l-79.613,32.865l1.485,5.998c0,0,20.159-7.886,26.88-0.355
			c0.85,0.989,1.656,1.602,2.836,5.067c1.842,6.046,4.626,18.577,9.66,46.139c1.254,8.128-3.237,12.561-3.237,12.561l-35.209,35.995
			c-7.973-52.656-21.814-137.681-21.814-137.681l-79.562,32.875l1.465,5.964c0,0,20.133-7.853,26.872-0.263
			c3.185,3.532,5.272,2.016,31.575,161.301c0,0,4.016,21.646-18.281,40.834l6.072,7.435c0,0,63.54-42.084,57.136-87.259
			c-0.136-1.208-0.34-2.423-0.547-3.691l40.611-40.941c3.706,21.151,8.284,48.187,13.995,83.025c0,0,3.987,21.595-18.306,40.818
			l6.143,7.397C-1272.588,249.477-1209.095,207.431-1215.499,162.197"/>
		<path fill="#FFFFFF" d="M-931.73,109.161c-0.363,1.677-0.771,3.366-1.205,5.022c-1.37,5.629-2.616,10.852-2.647,10.852h22.485
			c0,0,1.375-5.685,2.948-11.73c1.754-6.908,3.702-14.347,3.702-14.394c2.888-11.974-4.743-31.891-23.373-28.568
			c-6.781,1.249-12.89,4.556-18.831,8.103c-8.693,5.141-16.736,11.793-24.423,18.58l-13.671,47.142l-31.107,0.033
			c6.608-25.41,11.169-28.161-0.388-42.197l-17.323,8.347c2.343,5.585,1.451,9.079,0.563,13.526
			c-2.074,6.929-5.825,20.487-5.825,20.487h-12.184l-3.662,11.58l12.563-0.047l-19.286,78.982
			c0.391,3.693,8.568,15.158,18.473,15.25l28.389-17.93l-3.451-6.018c-16.754,11.071-18.676,3.324-18.565-0.303
			c5.976-23.185,17.197-69.877,17.197-69.877h27.305c0,0,4.819-0.565,3.642,3.592l-21.314,88.231l23.379-0.207l22.321-91.592
			l15.527-0.023c4.321,0.568,7.307,2.123,5.948,7.447c0,0-17.266,70.988-17.404,71.43c0.338,3.693,8.543,15.158,18.425,15.25
			l28.388-17.93l-3.426-5.996c-7.432,4.863-11.916,6.043-14.586,5.605l-0.245-0.1l-0.338-0.076l-0.339-0.105h-0.142
			c-2.505-1.061-2.982-3.818-2.913-5.648c5.994-23.185,20.014-81.678,20.014-81.678h-46.229l11.458-44.228
			c2.619-6.734,10.928-12.643,17.283-11.62c6.916,1.107,5.278,10.189,3.18,19.46C-931.516,108.278-931.61,108.791-931.73,109.161"/>
		<path fill="#FFFFFF" d="M-1144.201,227.89h0.056H-1144.201z"/>
		<path fill="#FFFFFF" d="M-1379.525,20.601"/>
		<path fill="#FFFFFF" d="M-1058.286,166.054L-1058.286,166.054c-0.53-1.144-1.065-2.318-1.642-3.372
			c-5.32-11.024-11.994-16.076-18.831-18.043c-0.291-0.135-0.667-0.182-0.98-0.3c-1.545-0.367-3.394-0.58-5.329-0.58
			c-13.233,0.096-33.583,8.997-38.737,22.477c-2.701,7.008-6.482,19.436-5.517,26.469c0.123,0.815,0.287,1.626,0.56,2.302
			c0.888,2.176,2.352,3.853,4.262,5.299c4.868,3.811,12.834,5.469,20.008,7.783l0.32,0.141c0.614,0.188,1.294,0.418,1.916,0.617
			c2.912,1.222,5.192,2.821,5.687,5.564c0.771,4.436-1.541,12.557-4.601,17.577c-7.248,12.21-16.615,4.822-25.45-14.577
			l-0.201,0.068h-0.024c-0.621,0.352-16.75,10.027-17.307,10.401c0.501,1.204,1.084,2.313,1.662,3.37
			c5.272,11.049,11.924,16.097,18.83,18.086c0.336,0.102,0.682,0.207,1.003,0.283c1.548,0.416,3.374,0.602,5.308,0.551
			c13.178-0.068,33.586-8.996,38.736-22.463c2.682-7.032,6.43-19.411,5.498-26.447c-0.101-0.883-0.314-1.641-0.584-2.334
			c-0.868-2.135-2.329-3.842-4.191-5.234c-4.911-3.874-12.874-5.533-20.061-7.869l-0.304-0.062c-0.653-0.24-1.25-0.463-1.857-0.678
			c-2.968-1.223-5.266-2.809-5.745-5.536c-0.772-4.452,1.554-12.518,4.587-17.546c7.302-12.239,16.685-4.809,25.528,14.524
			l0.101-0.06h0.069C-1074.972,176.151-1058.838,166.422-1058.286,166.054"/>
		<path fill="#FFFFFF" d="M-719.945,169.604l-12.815,47.114c-0.708,2.813-2.134,3.973-3.116,5.084
			c-15.467,12.634-33.595,17.683-27.095-9.25c0,0,11.021-43.823,12.959-46.826C-740.223,152.772-718.549,151.051-719.945,169.604
			 M-647.369,71.871c-16.563-0.395-34.816,1.147-47.025,14.259c-6.989,13.385-20.69,63.306-20.69,63.306
			c-4.189-6.034-37.698-13.77-56.941,12.301l-0.144,0.251c-2.508,5.133-16.696,62.071-16.85,62.153
			c-4.627,3.379-17.36,8.176-19.222,7.987c-2.848-1.282-4.378-3.509-3.897-6.721c12.543-43.433,21.203-87.875,35.319-130.673
			c5.258-10.866,16.909-15.658,28.053-16.982l-0.46-5.88c-16.491-0.395-34.744,1.147-46.978,14.259
			c-9.146,15.271-39.629,142.723-39.629,142.723c-1.511,10.562,9.555,22.105,17.047,21.275
			c10.932-4.776,20.703-11.396,30.897-17.543c3.369,4.608,8.782,10.662,13.304,13.896c13.158,9.595,39.041-7.482,39.184-7.242
			c3.667,5.761,9.339,12,19.121,10.149c7.48-2.469,36.643-21.783,36.643-21.783l-3.896-6.457c0,0-15.435,9.963-24.292,10.938
			c0,0-5.257-0.387-3.664-6.578l36.431-130.774c5.307-10.866,16.973-15.658,28.049-16.982L-647.369,71.871z"/>
		<path fill="#FFFFFF" d="M-852.675,177.265c-5.049,14.787-23.158,12.875-25.998,12.39v0.021c-0.48-0.233-0.301-1.111-0.301-1.111
			l4.56-17.718c2.799-10.1,15.028-16.024,20.108-14.65C-845.932,159.568-852.675,177.265-852.675,177.265 M-833.407,147.57
			c-7.629-7.582-24.205-3.255-34.744-0.623c-11.153,3.602-23.509,7.501-28.803,20.441c-4.239,14.947-11.365,42.638-15.307,60.863
			c-0.17,4.932,15.623,20.939,27.275,21.885c3.469,1.319,39.607-22.436,39.607-22.436l-3.856-6.553c0,0-14.66,9.475-23.587,10.66
			c-0.411,0.035-0.866-0.044-0.866-0.044c-5.197-0.778-11.639-4.754-13.437-9.37c-0.656-1.482,4.471-20.027,4.471-20.027
			s34.725,1.635,45.1-11.719C-830.061,178.278-824.803,157.336-833.407,147.57"/>
		<path fill="#FFFFFF" d="M-1157.158,177.265c-5.075,14.787-23.136,12.875-25.979,12.39v0.021c-0.509-0.233-0.294-1.111-0.294-1.111
			l4.574-17.718c2.823-10.1,14.984-16.024,20.085-14.65C-1150.371,159.568-1157.158,177.265-1157.158,177.265 M-1137.866,147.57
			c-7.658-7.582-24.232-3.255-34.797-0.623c-11.119,3.602-23.501,7.501-28.779,20.441c-4.26,14.947-11.341,42.638-15.241,60.863
			c-0.211,4.932,15.603,20.939,27.234,21.885c3.489,1.319,39.604-22.436,39.604-22.436l-3.846-6.553c0,0-14.715,9.475-23.618,10.66
			c-0.366,0.035-0.842-0.044-0.842-0.044c-5.2-0.778-11.587-4.754-13.391-9.37c-0.728-1.482,4.398-20.027,4.398-20.027
			s34.797,1.635,45.129-11.719C-1134.525,178.278-1129.267,157.336-1137.866,147.57"/>
	</g>
	<g>
		<path fill="#D92C27" d="M204.501,162.197c-0.185-1.043-0.336-2.141-0.481-3.326h0.053l40.808-41.225l31.523-31.938
			c0,0,11.849-12.634,10.878-29.562c-4.926-30.679-8.933-54.974-8.933-54.974l-79.172,32.729l-0.363,0.181l1.476,5.908
			c0,0,20.154-7.834,26.869-0.29c0.847,0.924,1.642,1.547,2.823,4.991c1.872,6.136,4.646,18.663,9.652,46.239
			c1.012,6.049-1.32,10.004-2.526,11.674c-0.175,0.23-0.316,0.356-0.316,0.356l-35.587,36.44c-1.396-9.234-0.983-6.436-0.022,0.025
			l-0.045,0.05C193.143,86.822,179.251,1.393,179.251,1.393L99.638,34.258l1.485,5.998c0,0,20.159-7.886,26.88-0.355
			c0.85,0.989,1.656,1.602,2.836,5.067c1.843,6.046,4.627,18.577,9.66,46.139c1.254,8.128-3.237,12.561-3.237,12.561l-35.209,35.995
			C94.079,87.006,80.238,1.982,80.238,1.982L0.676,34.857l1.466,5.964c0,0,20.133-7.853,26.872-0.263
			c3.185,3.532,5.271,2.016,31.575,161.301c0,0,4.015,21.646-18.282,40.834l6.073,7.435c0,0,63.539-42.084,57.136-87.259
			c-0.136-1.208-0.34-2.423-0.547-3.691l40.611-40.941c3.706,21.151,8.284,48.187,13.994,83.025c0,0,3.987,21.595-18.306,40.818
			l6.144,7.397C147.412,249.477,210.905,207.431,204.501,162.197"/>
		<path fill="#D92C27" d="M488.27,109.161c-0.363,1.677-0.771,3.366-1.205,5.022c-1.37,5.629-2.616,10.852-2.647,10.852h22.486
			c0,0,1.375-5.685,2.947-11.73c1.754-6.908,3.703-14.347,3.703-14.394c2.887-11.974-4.744-31.891-23.374-28.568
			c-6.78,1.249-12.89,4.556-18.831,8.103c-8.693,5.141-16.736,11.793-24.423,18.58l-13.671,47.142l-31.107,0.033
			c6.608-25.41,11.169-28.161-0.387-42.197l-17.324,8.347c2.343,5.585,1.451,9.079,0.563,13.526
			c-2.074,6.929-5.825,20.487-5.825,20.487h-12.184l-3.662,11.58l12.563-0.047l-19.286,78.982
			c0.391,3.693,8.568,15.158,18.473,15.25l28.389-17.93l-3.451-6.018c-16.754,11.071-18.677,3.324-18.564-0.303
			C387.428,202.693,398.649,156,398.649,156h27.304c0,0,4.819-0.565,3.642,3.592l-21.314,88.231l23.379-0.207l22.321-91.592
			L469.508,156c4.321,0.568,7.307,2.123,5.948,7.447c0,0-17.266,70.988-17.404,71.43c0.338,3.693,8.543,15.158,18.425,15.25
			l28.388-17.93l-3.426-5.996c-7.432,4.863-11.916,6.043-14.586,5.605l-0.245-0.1l-0.338-0.076l-0.339-0.105h-0.142
			c-2.505-1.061-2.982-3.818-2.913-5.648c5.994-23.185,20.014-81.678,20.014-81.678H456.66l11.458-44.228
			c2.619-6.734,10.928-12.643,17.283-11.62c6.916,1.107,5.278,10.189,3.18,19.46C488.484,108.278,488.39,108.791,488.27,109.161"/>
		<path fill="#D92C27" d="M275.799,227.89h0.056H275.799z"/>
		<path fill="#D92C27" d="M40.475,20.601"/>
		<path fill="#D92C27" d="M361.714,166.054L361.714,166.054c-0.53-1.144-1.064-2.318-1.642-3.372
			c-5.32-11.024-11.994-16.076-18.831-18.043c-0.291-0.135-0.667-0.182-0.98-0.3c-1.545-0.367-3.394-0.58-5.329-0.58
			c-13.233,0.096-33.583,8.997-38.737,22.477c-2.701,7.008-6.482,19.436-5.517,26.469c0.123,0.815,0.286,1.626,0.56,2.302
			c0.888,2.176,2.352,3.853,4.262,5.299c4.868,3.811,12.834,5.469,20.008,7.783l0.32,0.141c0.614,0.188,1.295,0.418,1.916,0.617
			c2.912,1.222,5.192,2.821,5.687,5.564c0.771,4.436-1.54,12.557-4.601,17.577c-7.248,12.21-16.615,4.822-25.45-14.577l-0.201,0.068
			h-0.024c-0.621,0.352-16.75,10.027-17.307,10.401c0.502,1.204,1.084,2.313,1.662,3.37c5.271,11.049,11.924,16.097,18.83,18.086
			c0.336,0.102,0.682,0.207,1.003,0.283c1.548,0.416,3.374,0.602,5.308,0.551c13.178-0.068,33.586-8.996,38.736-22.463
			c2.682-7.032,6.43-19.411,5.497-26.447c-0.101-0.883-0.313-1.641-0.585-2.334c-0.867-2.135-2.328-3.842-4.19-5.234
			c-4.911-3.874-12.874-5.533-20.061-7.869l-0.304-0.062c-0.653-0.24-1.25-0.463-1.857-0.678c-2.969-1.223-5.266-2.809-5.745-5.536
			c-0.771-4.452,1.555-12.518,4.588-17.546c7.302-12.239,16.685-4.809,25.527,14.524l0.101-0.06h0.069
			C345.028,176.151,361.162,166.422,361.714,166.054"/>
		<path fill="#D92C27" d="M700.055,169.604l-12.815,47.114c-0.707,2.813-2.134,3.973-3.116,5.084
			c-15.467,12.634-33.595,17.683-27.095-9.25c0,0,11.021-43.823,12.959-46.826C679.777,152.772,701.451,151.051,700.055,169.604
			 M772.632,71.871c-16.564-0.395-34.817,1.147-47.026,14.259c-6.989,13.385-20.69,63.306-20.69,63.306
			c-4.189-6.034-37.698-13.77-56.941,12.301l-0.144,0.251c-2.508,5.133-16.696,62.071-16.85,62.153
			c-4.627,3.379-17.36,8.176-19.223,7.987c-2.847-1.282-4.376-3.509-3.896-6.721c12.542-43.433,21.203-87.875,35.318-130.673
			c5.258-10.866,16.909-15.658,28.053-16.982l-0.46-5.88c-16.491-0.395-34.744,1.147-46.978,14.259
			c-9.146,15.271-39.629,142.723-39.629,142.723c-1.511,10.562,9.555,22.105,17.047,21.275
			c10.932-4.776,20.703-11.396,30.898-17.543c3.368,4.608,8.781,10.662,13.303,13.896c13.158,9.595,39.041-7.482,39.184-7.242
			c3.668,5.761,9.338,12,19.121,10.149c7.48-2.469,36.643-21.783,36.643-21.783l-3.896-6.457c0,0-15.435,9.963-24.292,10.938
			c0,0-5.257-0.387-3.664-6.578L744.94,94.733c5.307-10.866,16.973-15.658,28.049-16.982L772.632,71.871z"/>
		<path fill="#D92C27" d="M567.325,177.265c-5.05,14.787-23.158,12.875-25.998,12.39v0.021c-0.48-0.233-0.301-1.111-0.301-1.111
			l4.56-17.718c2.799-10.1,15.028-16.024,20.108-14.65C574.069,159.568,567.325,177.265,567.325,177.265 M586.592,147.57
			c-7.628-7.582-24.204-3.255-34.743-0.623c-11.153,3.602-23.509,7.501-28.803,20.441c-4.239,14.947-11.365,42.638-15.307,60.863
			c-0.17,4.932,15.623,20.939,27.275,21.885c3.469,1.319,39.607-22.436,39.607-22.436l-3.856-6.553c0,0-14.66,9.475-23.587,10.66
			c-0.411,0.035-0.866-0.044-0.866-0.044c-5.196-0.778-11.639-4.754-13.437-9.37c-0.656-1.482,4.471-20.027,4.471-20.027
			s34.725,1.635,45.1-11.719C589.939,178.278,595.198,157.336,586.592,147.57"/>
		<path fill="#D92C27" d="M262.842,177.265c-5.075,14.787-23.136,12.875-25.979,12.39v0.021c-0.509-0.233-0.295-1.111-0.295-1.111
			l4.574-17.718c2.823-10.1,14.984-16.024,20.085-14.65C269.629,159.568,262.842,177.265,262.842,177.265 M282.134,147.57
			c-7.658-7.582-24.232-3.255-34.798-0.623c-11.118,3.602-23.501,7.501-28.778,20.441c-4.26,14.947-11.342,42.638-15.241,60.863
			c-0.211,4.932,15.603,20.939,27.234,21.885c3.489,1.319,39.604-22.436,39.604-22.436l-3.846-6.553c0,0-14.715,9.475-23.618,10.66
			c-0.366,0.035-0.842-0.044-0.842-0.044c-5.2-0.778-11.588-4.754-13.392-9.37c-0.728-1.482,4.398-20.027,4.398-20.027
			s34.797,1.635,45.13-11.719C285.475,178.278,290.733,157.336,282.134,147.57"/>
	</g>
</g>
</svg>
